<svg version="1.1" id="Capa_1" xmlns="http://www.w3.org/2000/svg" xmlns:xlink="http://www.w3.org/1999/xlink" x="0px" y="0px"
	 viewBox="0 0 227.7 227.7" style="enable-background:new 0 0 227.7 227.7;" xml:space="preserve">
<style type="text/css">
	.st0{fill:#AAAAAA;}
</style>
<g>
	<path class="st0" d="M113.9,13.3c-55.5,0-100.6,45.1-100.6,100.6c0,55.5,45.1,100.6,100.6,100.6c55.5,0,100.6-45.1,100.6-100.6
		C214.4,58.4,169.3,13.3,113.9,13.3z M86.4,94.7l0.2-0.2c0.8-0.6,1.2-1.5,1.1-2.5c-2-12.2-0.7-17.3-0.3-18.5
		c3.5-10.9,14.7-15.9,16.8-16.8c0.5-0.2,1.3-0.4,2.2-0.6l0.3-0.1l1.8-0.1l0,0.1l0.4,0c0.4,0,0.7-0.1,1.2-0.2l0.4-0.1
		c0.4,0,4.7,0.6,11.1,2.5l4.5,1.5c8.2,2.4,11.9,6.9,12.6,7.8c6.5,7.4,4.8,18.6,3.2,24.6c-0.2,0.7-0.1,1.4,0.3,2l0.4,0.5
		c0.5,0.6,0.9,3.1-0.5,8.4c-0.3,1.6-0.9,2.9-1.7,3.8c-0.3,0.4-0.6,0.8-0.6,1.3c-2.2,13-13.8,27.5-26.1,27.5
		c-10.4,0-22.2-13.3-24.4-27.4c-0.1-0.5-0.3-1-0.7-1.4c-0.9-0.9-1.5-2.2-1.8-4.2C85.7,98.9,85.5,96,86.4,94.7z M63,150.9
		c0.5-0.6,3-3.5,8-5.5c4.5-1.4,15.5-5,21.5-9.4c0.3-0.2,0.6-0.4,0.8-0.7c0.6-0.6,1.4-1.5,2.4-2.5l0.6-0.5l0.6,0.5
		c5.3,5,11.2,7.8,16.6,7.8c5.6,0,11.5-2.4,16.8-7.1l0.4-0.4l1.1,0.6c1,0.9,2.8,2.2,3.6,2.6l1,0.5l-0.1,0.1l0.5,0.3
		c1,0.6,2.1,1.2,3.3,1.8c1.3,0.6,2.3,1,3.5,1.3c0.9,0.3,5.9,2,11.5,4.6l1.1,0.3c5.5,2.1,8,5.1,8.2,5.4c6.6,9.7,9.1,27.9,10,38
		c-17.1,13.9-38.7,21.6-60.7,21.6c-22,0-43.6-7.7-60.7-21.6C54.1,178.6,56.6,160.6,63,150.9z M168.7,148l-0.3-0.4
		c-1.6-2-5.2-4.9-10.4-6.9l-0.8-0.2c-5.2-2.4-10-4.1-11.8-4.6l-0.1,0.4l0,0l0-0.4c-1.1-0.4-2.1-0.8-2.9-1.1c-6-2.9-6.7-4.6-6.8-5
		l-0.3-0.7l0.3-0.6c4.5-5.6,7.6-12.1,8.8-18.2l0.1-0.4c1.3-1.6,2.1-3.4,2.4-5.5c1.4-5.1,1.5-8.9,0.2-11.5l-0.1-0.3l0.1-0.3
		c1.6-6.6,3.1-19.1-4.5-27.8c-1.2-1.5-5.8-6.7-15-9.4l-4.4-1.5c-7.4-2.3-12-2.8-12.6-2.8l0,0c-0.5,0-0.9,0-1.5,0.2l-0.6,0.1
		c-0.3,0-0.6-0.1-1-0.1c-2.4,0-4.9,1-5,1.1c-2.6,1.1-15.5,7.1-19.7,19.8c-0.7,1.8-2.1,7.3-0.3,19.3l0.1,0.3l-0.2,0.3
		c-1.8,2.5-2,6.5-0.4,11.9c0.4,2.4,1.2,4.3,2.3,5.8l0.2,0.4c1.1,6.3,3.9,12.5,8.1,18l0.4,0.5l-0.3,0.5c-0.2,0.3-0.3,0.5-0.4,0.7
		c-1,2.9-12.5,8.1-22.6,11.2C62.1,143.5,59,148,59,148c-6.3,9.3-9.1,24.9-10.4,36.7c-19.8-18.2-31.1-44-31.1-70.9
		c0-53.2,43.3-96.4,96.4-96.4c53.2,0,96.4,43.3,96.4,96.4c0,26.8-11.3,52.6-31.1,70.9C177.8,172.8,174.9,157.2,168.7,148z"/>
</g>
</svg>
